<svg 
style="border-radius: 100%"
xmlns="http://www.w3.org/2000/svg"
xmlns:xlink="http://www.w3.org/1999/xlink" viewBox="0 0 64 64">
<path fill="black" d="M46.908,23.95c-0.006-0.005-0.011-0.01-0.018-0.014l-0.01-0.005l-9.05-4.525c-0.061-0.031-0.125-0.051-0.19-0.068c-0.082-0.021-0.165-0.034-0.249-0.034c-0.347,0-0.692,0.174-0.878,0.477l-5.21,8.467l6.538,10.625l9.095-14.779C46.966,24.046,46.952,23.985,46.908,23.95z M28.433,35.958L37,40.241L28.433,26.32V35.958zM38.287,40.884l7.052,3.526C46.256,44.869,47,44.548,47,43.693V26.726L38.287,40.884z M26.946,23.964l-8.839-4.419c-0.16-0.08-0.312-0.118-0.449-0.118c-0.387,0-0.659,0.299-0.659,0.802v19.083c0,0.511,0.374,1.116,0.831,1.344l7.785,3.892c0.2,0.1,0.39,0.147,0.561,0.147c0.484,0,0.823-0.374,0.823-1.003V24.051C27,24.014,26.979,23.98,26.946,23.964z"/>
<path fill="white" d="M0,0v64h64V0H0z M27,43.693c0,0.628-0.339,1.003-0.823,1.003c-0.172,0-0.362-0.047-0.561-0.147l-7.785-3.892C17.374,40.428,17,39.823,17,39.312V20.229c0-0.503,0.271-0.802,0.659-0.802c0.137,0,0.289,0.038,0.449,0.118l8.839,4.419C26.979,23.98,27,24.014,27,24.051V43.693z M28.433,35.958V26.32L37,40.241L28.433,35.958z M31.303,28.248l5.21-8.467c0.187-0.303,0.532-0.477,0.878-0.477c0.084,0,0.167,0.013,0.249,0.034c0.065,0.017,0.129,0.038,0.19,0.068l9.05,4.525l0.01,0.005c0.007,0.003,0.012,0.009,0.018,0.014c0.043,0.034,0.058,0.095,0.028,0.145l-9.095,14.779L31.303,28.248z M47,43.693c0,0.855-0.744,1.176-1.661,0.717l-7.052-3.526L47,26.726V43.693z"/>
</svg>


