<svg xml:space="preserve" viewBox="0 0 100 100" y="0" x="0"
xmlns="http://www.w3.org/2000/svg" id="圖層_1" version="1.1" style="height:
100%; width: 100%; background: transparent"
width="200px" height="200px">
<style type="text/css">
@keyframes tremble-1bbf05ff-db3c-41dd-b320-31527ded924c {
  10%, 90% {
    transform: translate3d(-1px, 0, 0);
  }
  
  20%, 80% {
    transform: translate3d(0.5px, 0, 0);
  }

  30%, 50%, 70% {
    transform: translate3d(-1px, 0, 0);
  }

  40%, 60% {
    transform: translate3d(1.5px, 0, 0);
  }
}
</style>
<g style="transform-origin: 50% 50% 0px; transform:
rotate(0deg) scale(0.8);" class="ldl-scale"><g class="ldl-ani"><g
class="ldl-layer"><g class="ldl-ani" style="transform-origin: 50px 50px 0px;
transform: matrix(1, 0, 0, 1, 0, 0); animation: 1.11111s linear -0.634921s
infinite normal forwards running
tremble-1bbf05ff-db3c-41dd-b320-31527ded924c;"><path fill="#f47e60" d="M37.328
76.238L24.11 63.019c-.99-.99-.57-2.677.768-3.088l6.991-2.145 10.693 10.693-2.145
6.991a1.858 1.858 0 0 1-3.089.768z" style="fill: rgb(244, 126,
96);"></path></g></g><g class="ldl-layer"><g class="ldl-ani"
style="transform-origin: 50px 50px 0px; transform: matrix(1, 0, 0, 1, 0, 0);
animation: 1.11111s linear -0.714286s infinite normal forwards running
tremble-1bbf05ff-db3c-41dd-b320-31527ded924c;"><path fill="#e15b64" d="M52.584
92.847c0 .001 0 0 0 0 7.624-6.472 4.221-13.342-.219-19.324a6.576 6.576 0 0
1-.111-7.694l6.924-9.889c2.434-3.476 7.744-2.923 9.408.981 5.571 13.074 4.055
30.146-16.002 35.926z" style="fill: rgb(225, 91, 100);"></path></g></g><g
class="ldl-layer"><g class="ldl-ani" style="transform-origin: 50px 50px 0px;
transform: matrix(1, 0, 0, 1, 0, 0); animation: 1.11111s linear -0.793651s
infinite normal forwards running
tremble-1bbf05ff-db3c-41dd-b320-31527ded924c;"><path fill="#e15b64" d="M7.501
47.763c-.001.001-.001.001 0 0 6.472-7.624 13.342-4.221 19.324.219a6.576 6.576 0
0 0 7.694.111l9.889-6.924c3.476-2.434
2.923-7.744-.981-9.408-13.074-5.571-30.146-4.054-35.926 16.002z" style="fill:
rgb(225, 91, 100);"></path></g></g><g class="ldl-layer"><g class="ldl-ani"
style="transform-origin: 50px 50px 0px; transform: matrix(1, 0, 0, 1, 0, 0);
animation: 1.11111s linear -0.873016s infinite normal forwards running
tremble-1bbf05ff-db3c-41dd-b320-31527ded924c;"><path fill="#e0e0e0" d="M76.207
56.895C65.609 67.492 52.078 72.009 42.368 69.106L31.243 57.984c-2.906-9.71
1.611-23.244 12.21-33.843C62.034 5.56 86.491 5.242 90.4 9.151s3.975
29.576-14.193 47.744z" style="fill: rgb(243, 243, 243);"></path></g></g><g
class="ldl-layer"><g class="ldl-ani" style="transform-origin: 50px 50px 0px;
transform: matrix(1, 0, 0, 1, 0, 0); animation: 1.11111s linear -0.952381s
infinite normal forwards running
tremble-1bbf05ff-db3c-41dd-b320-31527ded924c;"><circle r="8.431" fill="#77a4bd"
cy="30.841" cx="69.507" transform="rotate(-45.001 69.507 30.842)" style="fill:
rgb(5, 236, 227);"></circle></g></g><g class="ldl-layer"><g class="ldl-ani"
style="transform-origin: 50px 50px 0px; transform: matrix(1, 0, 0, 1, 0, 0);
animation: 1.11111s linear -1.03175s infinite normal forwards running
tremble-1bbf05ff-db3c-41dd-b320-31527ded924c;"><path fill="#f47e60" d="M90.4
9.151c-1.972-1.972-9.18-2.864-18.223-.88l19.405
19.405c1.766-9.177.772-16.571-1.182-18.525z" style="fill: rgb(244, 126,
96);"></path></g></g><g class="ldl-layer"><g class="ldl-ani"
style="transform-origin: 50px 50px 0px; transform: matrix(1, 0, 0, 1, 0, 0);
animation: 1.11111s linear -1.11111s infinite normal forwards running
tremble-1bbf05ff-db3c-41dd-b320-31527ded924c;"><path d="M26.51
87.355l7.413-14.523-3.204-3.203-.111-.112-3.203-3.203-14.524 7.413 6.402
1.179-6.402 12.339-.352.351.232-.12-.12.231.351-.351 12.338-6.403z"
fill="#c33737" style="fill: rgb(195, 55, 55);"></path></g></g><metadata
xmlns:d="https://loading.io/stock/"><d:name>rocket</d:name><d:tags>space
shuttle,missile,space,travel,fire,take
off,rocket,business</d:tags><d:license>pro</d:license><d:slug>pn885j</d:slug></metadata></g></g></svg>